<svg width="18" height="14" viewBox="0 0 18 14" fill="none" xmlns="http://www.w3.org/2000/svg">
<path d="M2.25 10V3.4C2.25 2.55992 2.25 2.13988 2.41349 1.81901C2.5573 1.53677 2.78677 1.3073 3.06901 1.16349C3.38988 1 3.80992 1 4.65 1H13.35C14.1901 1 14.6101 1 14.931 1.16349C15.2132 1.3073 15.4427 1.53677 15.5865 1.81901C15.75 2.13988 15.75 2.55992 15.75 3.4V10H11.7471C11.5636 10 11.4719 10 11.3856 10.0207C11.309 10.0391 11.2359 10.0694 11.1688 10.1105C11.0931 10.1569 11.0282 10.2218 10.8985 10.3515L10.8515 10.3985C10.7218 10.5282 10.6569 10.5931 10.5812 10.6395C10.5141 10.6806 10.441 10.7109 10.3644 10.7293C10.2781 10.75 10.1864 10.75 10.0029 10.75H7.99706C7.81361 10.75 7.72189 10.75 7.63558 10.7293C7.55905 10.7109 7.48589 10.6806 7.41879 10.6395C7.3431 10.5931 7.27824 10.5282 7.14853 10.3985L7.10147 10.3515C6.97176 10.2218 6.9069 10.1569 6.83121 10.1105C6.76411 10.0694 6.69095 10.0391 6.61442 10.0207C6.52811 10 6.43639 10 6.25294 10H2.25ZM2.25 10C1.83579 10 1.5 10.3358 1.5 10.75V11C1.5 11.465 1.5 11.6975 1.55111 11.8882C1.68981 12.4059 2.09413 12.8102 2.61177 12.9489C2.80252 13 3.03501 13 3.5 13H14.5C14.965 13 15.1975 13 15.3882 12.9489C15.9059 12.8102 16.3102 12.4059 16.4489 11.8882C16.5 11.6975 16.5 11.465 16.5 11C16.5 10.7675 16.5 10.6513 16.4744 10.5559C16.4051 10.2971 16.2029 10.0949 15.9441 10.0256C15.8487 10 15.7325 10 15.5 10H15" stroke="#64748B" stroke-width="1.5" stroke-linecap="round" stroke-linejoin="round"/>
</svg>
