<svg width="33" height="33" viewBox="0 0 33 33" fill="none" xmlns="http://www.w3.org/2000/svg">
<g opacity="0.2">
<mask id="mask0_456_2872" style="mask-type:alpha" maskUnits="userSpaceOnUse" x="5" y="9" width="23" height="14">
<path fill-rule="evenodd" clip-rule="evenodd" d="M24.993 21.9453C24.6997 22.5453 24.073 22.932 23.393 22.932C22.0597 22.932 21.193 21.532 21.793 20.3453L23.1663 17.5986L20.4997 17.5986C19.7663 17.5986 19.1663 16.9986 19.1663 16.2653L19.1663 10.932C19.1663 10.1986 19.7663 9.59864 20.4997 9.59864L25.833 9.59864C26.5663 9.59864 27.1663 10.1986 27.1663 10.932L27.1663 16.972C27.1663 17.3853 27.073 17.7853 26.8863 18.1586L24.993 21.9453ZM11.6597 21.9453C11.3663 22.5453 10.7397 22.932 10.0597 22.932C8.72634 22.932 7.85967 21.532 8.45967 20.3453L9.83301 17.5986L7.16634 17.5986C6.43301 17.5986 5.83301 16.9986 5.83301 16.2653L5.83301 10.932C5.83301 10.1986 6.43301 9.59864 7.16634 9.59864L12.4997 9.59864C13.233 9.59864 13.833 10.1986 13.833 10.932L13.833 16.972C13.833 17.3853 13.7397 17.7853 13.553 18.1586L11.6597 21.9453Z" fill="#0F172A"/>
</mask>
<g mask="url(#mask0_456_2872)">
<rect x="0.5" y="0.266602" width="32" height="32" fill="#475569"/>
</g>
</g>
</svg>
