<svg width="1146" height="256" viewBox="0 0 1146 256" fill="none" xmlns="http://www.w3.org/2000/svg">
<g clip-path="url(#clip0_280_2001)">
<rect width="1146" height="256" fill="white"/>
<rect x="0.5" y="0.5" width="1145" height="255" fill="white" stroke="white"/>
<g opacity="0.12" clip-path="url(#clip1_280_2001)">
<path d="M-5.9526 645.812L275.048 289.635L-56.0003 605.779C-40.0576 620.252 -23.3441 633.621 -5.9526 645.812ZM92.95 699.122L275.048 289.635L38.9258 673.756C56.4912 683.38 74.5451 691.837 92.9941 699.085L92.95 699.122ZM259.739 731.009C272.916 731.009 285.928 730.265 298.852 729.15L275.048 289.635L243.425 730.513C248.848 730.712 254.26 730.972 259.739 730.972V731.009ZM195.752 726.31L275.048 289.635L140.137 714.768C158.468 719.774 177.035 723.615 195.752 726.273V726.31ZM-171.56 457.154L275.048 289.635L-203.073 388.086C-193.993 411.893 -183.464 434.971 -171.56 457.154ZM-96.2948 565.288L275.048 289.635L-139.163 510.316C-125.943 529.657 -111.624 548.019 -96.2948 565.288ZM721.082 391.719L275.048 289.635L691.557 456.138C702.627 435.388 712.493 413.858 721.093 391.681L721.082 391.719ZM399.798 708.631L275.048 289.585L345.817 722.579C364.027 719.054 382.048 714.398 399.798 708.631ZM661.579 506.126L275.048 289.635L621.815 558.171C635.976 541.733 649.244 524.353 661.546 506.126H661.579ZM584.679 597.299L275.048 289.635L538.122 636.662C554.292 624.556 569.825 611.413 584.646 597.299H584.679ZM-223.474 323.655L275.048 289.635L-238.662 243.205C-235.355 270.402 -230.279 297.29 -223.474 323.655ZM496.115 664.805L275.048 289.635L444.941 691.324C462.429 683.569 479.514 674.716 496.115 664.805ZM538.851 -303.687L275.048 289.635L603.987 -245.491C583.743 -266.874 561.957 -286.339 538.851 -303.687ZM726.284 -45.3164L275.048 289.635L749.48 36.819C743.638 8.81283 735.883 -18.6468 726.284 -45.3164ZM651.66 -187.792L275.004 289.647L696.859 -113.281C683.586 -139.431 668.471 -164.347 651.66 -187.792ZM396.186 -377.367L275.048 289.635L476.079 -343.794C450.349 -357.521 423.621 -368.754 396.186 -377.367ZM756.383 256.793L275.048 289.635L740.898 331.788C747.579 307.216 752.753 282.159 756.383 256.793ZM762.911 166.215C762.907 146.654 762.007 127.105 760.216 107.648L275.048 289.635L762.381 189.213C762.657 181.663 762.911 173.951 762.911 166.215ZM81.098 -361.795L275.048 289.635L164.249 -388.265C135.904 -382.15 108.083 -373.294 81.098 -361.795ZM-223.828 10.1389L275.048 289.635L-195.407 -74.6992C-206.904 -47.3098 -216.409 -18.9213 -223.828 10.1885V10.1389ZM-160.868 -143.594L275.048 289.635L-109.34 -217.435C-128.311 -194.463 -145.557 -169.77 -160.901 -143.606L-160.868 -143.594ZM-56.4311 -272.977L275.048 289.635L14.3713 -326.796C-10.5562 -311.146 -34.2533 -293.146 -56.4643 -272.99L-56.4311 -272.977ZM-243.434 166.215C-243.434 167.827 -243.334 169.426 -243.323 171.038L275.048 289.635L-238.121 84.4886C-241.638 111.552 -243.414 138.865 -243.434 166.215ZM259.739 -398.555C252.383 -398.555 245.092 -398.282 237.813 -397.935L275.048 289.635L324.08 -393.794C302.745 -396.912 281.254 -398.502 259.739 -398.555Z" fill="url(#paint0_radial_280_2001)"/>
</g>
</g>
<defs>
<radialGradient id="paint0_radial_280_2001" cx="0" cy="0" r="1" gradientUnits="userSpaceOnUse" gradientTransform="translate(574.48 140.267) rotate(164.968) scale(399.049 441.566)">
<stop stop-color="white"/>
<stop offset="1" stop-color="#7C3AED"/>
</radialGradient>
<clipPath id="clip0_280_2001">
<rect width="1146" height="256" fill="white"/>
</clipPath>
<clipPath id="clip1_280_2001">
<rect width="581" height="369.455" fill="white" transform="translate(-17 -104.727)"/>
</clipPath>
</defs>
</svg>
