<svg width="1146" height="328" viewBox="0 0 1146 328" fill="none" xmlns="http://www.w3.org/2000/svg">
<g clip-path="url(#clip0_280_2017)">
<rect y="-1" width="1146" height="329" rx="24" fill="#0F172A"/>
<path opacity="0.12" fill-rule="evenodd" clip-rule="evenodd" d="M-80.8792 -94.2734C-61.6441 -96.9439 -28.8173 -97.172 7.21477 -89.197C43.2492 -81.2215 82.5193 -65.0351 114.606 -34.8509C124.652 -25.4007 130.631 -16.2001 133.638 -7.21637C136.645 1.77022 136.667 10.5085 134.846 19.0148C131.716 33.6316 123.124 47.6075 114.882 61.0143C113.553 63.176 112.234 65.323 110.947 67.4554C106.304 75.1528 102.091 82.6648 99.4083 90.0383C96.7265 97.4079 95.5838 104.609 97.0482 111.693C99.9736 125.844 113.366 139.77 146.523 153.618C196.394 174.446 236.582 172.752 270.677 171.315L270.678 171.315C281.884 170.843 292.433 170.398 302.451 170.79C322.695 171.582 340.746 175.807 357.542 190.209C374.319 204.595 389.796 229.094 405.004 270.321C420.176 311.451 439.101 329.072 460.083 333.819C481.121 338.579 504.388 330.449 528.369 319.641C534.152 317.034 539.975 314.272 545.815 311.503L545.815 311.503C564.133 302.816 582.608 294.054 600.468 289.788C612.26 286.972 623.821 286.104 634.931 288.515C646.047 290.928 656.683 296.618 666.631 306.869L665.955 307.525C656.129 297.398 645.655 291.807 634.732 289.436C623.801 287.064 612.391 287.909 600.687 290.705C582.932 294.945 564.586 303.645 546.289 312.322L546.288 312.322C540.432 315.1 534.581 317.874 528.756 320.499C504.79 331.301 481.254 339.575 459.876 334.738C438.444 329.889 419.342 311.912 404.121 270.647C388.935 229.479 373.528 205.156 356.93 190.924C340.351 176.708 322.535 172.519 302.414 171.731C292.496 171.343 282.011 171.786 270.846 172.257C236.722 173.697 196.245 175.405 146.16 154.487C112.949 140.616 99.1526 126.523 96.1263 111.883C94.6148 104.572 95.8055 97.1852 98.5237 89.7156C101.24 82.2499 105.494 74.6714 110.141 66.9683C111.434 64.8258 112.756 62.674 114.085 60.5117L114.092 60.4993L114.093 60.4984C122.34 47.0791 130.832 33.2612 133.925 18.8169C135.717 10.448 135.691 1.88399 132.745 -6.91776C129.799 -15.7224 123.921 -24.796 113.961 -34.1648C82.0319 -64.2012 42.9326 -80.3271 7.01201 -88.2773C-28.9111 -96.2282 -61.6251 -95.9955 -80.7493 -93.3404L-80.8792 -94.2734ZM-10.3805 -72.9372C-46.4125 -80.9121 -79.2393 -80.684 -98.4744 -78.0135L-98.3444 -77.0805C-79.2203 -79.7356 -46.5062 -79.9683 -10.5832 -72.0175C25.3375 -64.0672 64.4367 -47.9413 96.3662 -17.905C106.326 -8.5362 112.204 0.537477 115.15 9.34209C118.096 18.1438 118.122 26.7079 116.33 35.0768C113.237 49.5212 104.745 63.3393 96.4974 76.7588L96.4973 76.7592C95.1658 78.9256 93.8408 81.0816 92.5459 83.2282C87.8992 90.9312 83.6452 98.5098 80.9285 105.975C78.2103 113.445 77.0196 120.832 78.5311 128.143C81.5574 142.782 95.3537 156.876 128.565 170.747C178.65 191.665 219.127 189.957 253.251 188.517C264.416 188.045 274.9 187.603 284.819 187.991C304.94 188.778 322.756 192.968 339.335 207.184C355.933 221.416 371.339 245.739 386.525 286.907C401.747 328.172 420.849 346.149 442.281 350.998C463.659 355.835 487.195 347.561 511.161 336.759C516.986 334.134 522.838 331.359 528.694 328.582L528.694 328.582C546.991 319.905 565.337 311.205 583.092 306.964C594.796 304.169 606.206 303.324 617.136 305.696C628.06 308.067 638.534 313.658 648.36 323.785L649.035 323.129C639.088 312.878 628.452 307.188 617.335 304.775C606.225 302.364 594.665 303.232 582.873 306.048C565.013 310.314 546.538 319.075 528.22 327.763L528.22 327.763C522.38 330.532 516.557 333.294 510.774 335.9C486.793 346.708 463.525 354.839 442.488 350.079C421.506 345.332 402.581 327.711 387.408 286.581C372.2 245.354 356.724 220.855 339.947 206.469C323.151 192.067 305.099 187.842 284.855 187.05C274.838 186.658 264.289 187.103 253.082 187.575L253.082 187.575C218.987 189.012 178.799 190.706 128.927 169.878C95.7708 156.03 82.3784 142.104 79.453 127.953C77.9886 120.869 79.1313 113.668 81.8131 106.298C84.4963 98.9246 88.7086 91.4127 93.352 83.7152C94.6357 81.5871 95.9528 79.4445 97.279 77.2872L97.2871 77.2742C105.529 63.8673 114.12 49.8915 117.25 35.2746C119.072 26.7684 119.05 18.0301 116.043 9.0435C113.036 0.0597535 107.057 -9.14089 97.0109 -18.591C64.9241 -48.7753 25.6541 -64.9617 -10.3805 -72.9372ZM-116.067 -61.754C-96.8323 -64.4245 -64.0055 -64.6526 -27.9734 -56.6776C8.06108 -48.7022 47.3312 -32.5157 79.4179 -2.33151C89.4637 7.11864 95.4433 16.3193 98.4498 25.303C101.457 34.2896 101.479 43.0279 99.6574 51.5341C96.5274 66.151 87.9358 80.1269 79.6941 93.5337L79.6757 93.5638C78.353 95.7153 77.0394 97.8522 75.759 99.9748C71.1157 107.672 66.9033 115.184 64.2201 122.558C61.5384 129.927 60.3956 137.129 61.86 144.212C64.7854 158.363 78.1779 172.289 111.334 186.137C161.206 206.966 201.394 205.272 235.489 203.835C246.696 203.362 257.245 202.917 267.262 203.309C287.506 204.102 305.558 208.326 322.354 222.728C339.131 237.114 354.607 261.613 369.816 302.841C384.988 343.971 403.913 361.591 424.895 366.339C445.932 371.099 469.2 362.968 493.181 352.16C498.963 349.554 504.786 346.793 510.624 344.024L510.625 344.023L510.627 344.022C528.945 335.335 547.42 326.573 565.28 322.308C577.072 319.491 588.633 318.624 599.743 321.035C610.859 323.448 621.495 329.137 631.442 339.389L630.767 340.044C620.941 329.918 610.467 324.326 599.543 321.955C588.613 319.583 577.203 320.429 565.499 323.224C547.744 327.464 529.398 336.164 511.101 344.841C505.245 347.618 499.393 350.393 493.568 353.019C469.602 363.82 446.066 372.094 424.688 367.258C403.256 362.408 384.154 344.432 368.932 303.166C353.746 261.999 338.34 237.676 321.742 223.443C305.163 209.228 287.347 205.038 267.226 204.251C257.308 203.863 246.823 204.305 235.658 204.776C201.534 206.216 161.057 207.924 110.972 187.006C77.7608 173.136 63.9645 159.042 60.9381 144.403C59.4267 137.091 60.6173 129.705 63.3355 122.235C66.0522 114.769 70.3062 107.191 74.953 99.4877C76.2478 97.3412 77.5728 95.1853 78.9042 93.019C87.1514 79.5993 95.6437 65.7809 98.7369 51.3363C100.529 42.9674 100.503 34.4034 97.557 25.6016C94.6106 16.797 88.7326 7.72334 78.7733 -1.64544C46.8438 -31.6818 7.74446 -47.8077 -28.1762 -55.758C-64.0992 -63.7088 -96.8133 -63.4761 -115.937 -60.821L-116.067 -61.754ZM-133.662 -45.4947C-114.427 -48.1652 -81.6006 -48.3933 -45.5685 -40.4183C-9.53401 -32.4428 29.736 -16.2564 61.8229 13.9278C71.8686 23.378 77.8482 32.5786 80.8546 41.5623C83.862 50.5489 83.8839 59.2872 82.0624 67.7935C78.9323 82.4103 70.3407 96.3862 62.099 109.793L62.0908 109.806C60.7646 111.964 59.4476 114.106 58.1639 116.234C53.5206 123.932 49.3082 131.443 46.625 138.817C43.9432 146.187 42.8005 153.388 44.2649 160.472C47.1903 174.623 60.5827 188.549 93.7394 202.396C143.611 223.225 183.799 221.531 217.894 220.094L217.895 220.094L217.895 220.094C229.102 219.621 239.65 219.177 249.667 219.569C269.911 220.361 287.963 224.585 304.759 238.988C321.536 253.373 337.012 277.872 352.22 319.1C367.392 360.23 386.318 377.851 407.3 382.598C428.337 387.358 451.605 379.227 475.586 368.419C481.368 365.813 487.192 363.051 493.032 360.282L493.032 360.282L493.032 360.282C511.35 351.594 529.825 342.833 547.685 338.567C559.477 335.751 571.037 334.883 582.147 337.294C593.264 339.707 603.9 345.397 613.847 355.648L613.172 356.304C603.345 346.177 592.872 340.586 581.948 338.215C571.018 335.842 559.608 336.688 547.904 339.483C530.149 343.724 511.803 352.424 493.506 361.1L493.506 361.101L493.503 361.102L493.496 361.105L493.491 361.107C487.64 363.882 481.793 366.655 475.973 369.278C452.007 380.08 428.471 388.354 407.093 383.517C385.661 378.668 366.559 360.691 351.337 319.426C336.151 278.258 320.745 253.935 304.147 239.703C287.568 225.487 269.752 221.297 249.631 220.51C239.712 220.122 229.228 220.564 218.063 221.035C183.939 222.475 143.462 224.183 93.3772 203.266C60.1656 189.395 46.3693 175.301 43.343 160.662C41.8316 153.351 43.0222 145.964 45.7404 138.494C48.4571 131.029 52.7111 123.45 57.3578 115.747C58.6527 113.6 59.9777 111.444 61.3092 109.278L61.3095 109.278C69.5566 95.8582 78.0486 82.04 81.1418 67.5956C82.9339 59.2267 82.9075 50.6627 79.962 41.8609C77.0154 33.0563 71.1375 23.9827 61.1781 14.6139C29.2486 -15.4225 -9.85062 -31.5483 -45.7713 -39.4986C-81.6943 -47.4494 -114.408 -47.2168 -133.533 -44.5617L-133.662 -45.4947Z" fill="url(#paint0_linear_280_2017)"/>
<path d="M462.391 73.0679L437.216 141.584L397.906 38.8633L462.391 73.0679Z" fill="url(#paint1_linear_280_2017)"/>
<path d="M522.164 50.1934L496.99 118.709L457.68 15.9888L522.164 50.1934Z" fill="url(#paint2_linear_280_2017)"/>
<path d="M641.707 4.44483L616.533 72.9607L577.223 -29.7597L641.707 4.44483Z" fill="url(#paint3_linear_280_2017)"/>
<path d="M581.934 27.3193L556.759 95.8352L517.449 -6.8852L581.934 27.3193Z" fill="url(#paint4_linear_280_2017)"/>
<path d="M1084.67 123.141L1075.09 163.246L1046.23 108.222L1084.67 123.141Z" fill="url(#paint5_linear_280_2017)"/>
<path d="M1116.69 106.35L1107.11 146.455L1078.25 91.4311L1116.69 106.35Z" fill="url(#paint6_linear_280_2017)"/>
<path d="M1180.73 72.7674L1171.14 112.873L1142.29 57.8486L1180.73 72.7674Z" fill="url(#paint7_linear_280_2017)"/>
<path d="M1148.71 89.5589L1139.12 129.664L1110.27 74.6401L1148.71 89.5589Z" fill="url(#paint8_linear_280_2017)"/>
<path d="M1078.67 305.14L1069.09 345.246L1040.23 290.222L1078.67 305.14Z" fill="url(#paint9_linear_280_2017)"/>
<path d="M1110.69 288.349L1101.11 328.455L1072.25 273.431L1110.69 288.349Z" fill="url(#paint10_linear_280_2017)"/>
<path d="M1174.73 254.767L1165.14 294.872L1136.29 239.848L1174.73 254.767Z" fill="url(#paint11_linear_280_2017)"/>
<path d="M1142.71 271.558L1133.12 311.664L1104.27 256.64L1142.71 271.558Z" fill="url(#paint12_linear_280_2017)"/>
<path d="M338.688 345.931L324.469 405.418L281.669 323.803L338.688 345.931Z" fill="url(#paint13_linear_280_2017)"/>
<path d="M433.676 296.119L419.458 355.606L376.657 273.991L433.676 296.119Z" fill="url(#paint14_linear_280_2017)"/>
<path d="M386.176 321.026L371.958 380.512L329.157 298.897L386.176 321.026Z" fill="url(#paint15_linear_280_2017)"/>
<path d="M697.782 326.549L680.767 372.893L654.163 303.426L697.782 326.549Z" fill="url(#paint16_linear_280_2017)"/>
<path d="M738.204 311.069L721.189 357.413L694.585 287.946L738.204 311.069Z" fill="url(#paint17_linear_280_2017)"/>
<path d="M819.047 280.107L802.032 326.451L775.428 256.984L819.047 280.107Z" fill="url(#paint18_linear_280_2017)"/>
<path d="M778.625 295.588L761.611 341.932L735.007 272.465L778.625 295.588Z" fill="url(#paint19_linear_280_2017)"/>
<path d="M29.6264 277.364L6.85366 346.715L-36.0103 245.426L29.6264 277.364Z" fill="url(#paint20_linear_280_2017)"/>
<path d="M147.505 227.479L124.733 296.83L81.8686 195.541L147.505 227.479Z" fill="url(#paint21_linear_280_2017)"/>
<path d="M88.5678 252.422L65.7951 321.773L22.9311 220.484L88.5678 252.422Z" fill="url(#paint22_linear_280_2017)"/>
<path d="M22.201 25.6633L12.3503 55.6623L-6.1912 11.8482L22.201 25.6633Z" fill="url(#paint23_linear_280_2017)"/>
<path d="M47.6932 14.8743L37.8425 44.8733L19.301 1.05909L47.6932 14.8743Z" fill="url(#paint24_linear_280_2017)"/>
<path d="M98.6854 -6.70436L88.8347 23.2947L70.2932 -20.5195L98.6854 -6.70436Z" fill="url(#paint25_linear_280_2017)"/>
<path d="M73.1893 4.08519L63.3386 34.0842L44.7971 -9.72997L73.1893 4.08519Z" fill="url(#paint26_linear_280_2017)"/>
</g>
<defs>
<linearGradient id="paint0_linear_280_2017" x1="541.952" y1="352.705" x2="-173.905" y2="82.087" gradientUnits="userSpaceOnUse">
<stop stop-color="white"/>
</linearGradient>
<linearGradient id="paint1_linear_280_2017" x1="462.391" y1="73.0679" x2="402.618" y2="95.9421" gradientUnits="userSpaceOnUse">
<stop stop-color="#1C3061"/>
<stop offset="1" stop-color="#1A2746" stop-opacity="0"/>
</linearGradient>
<linearGradient id="paint2_linear_280_2017" x1="522.164" y1="50.1934" x2="462.392" y2="73.0676" gradientUnits="userSpaceOnUse">
<stop stop-color="#1C3061"/>
<stop offset="1" stop-color="#1A2746" stop-opacity="0"/>
</linearGradient>
<linearGradient id="paint3_linear_280_2017" x1="641.707" y1="4.44483" x2="581.935" y2="27.3191" gradientUnits="userSpaceOnUse">
<stop stop-color="#1C3061"/>
<stop offset="1" stop-color="#1A2746" stop-opacity="0"/>
</linearGradient>
<linearGradient id="paint4_linear_280_2017" x1="581.934" y1="27.3193" x2="522.161" y2="50.1936" gradientUnits="userSpaceOnUse">
<stop stop-color="#1C3061"/>
<stop offset="1" stop-color="#1A2746" stop-opacity="0"/>
</linearGradient>
<linearGradient id="paint5_linear_280_2017" x1="1084.67" y1="123.141" x2="1052.65" y2="139.932" gradientUnits="userSpaceOnUse">
<stop stop-color="#2D4171"/>
<stop offset="1" stop-color="#1A2746" stop-opacity="0"/>
</linearGradient>
<linearGradient id="paint6_linear_280_2017" x1="1116.69" y1="106.35" x2="1084.67" y2="123.141" gradientUnits="userSpaceOnUse">
<stop stop-color="#2D4171"/>
<stop offset="1" stop-color="#1A2746" stop-opacity="0"/>
</linearGradient>
<linearGradient id="paint7_linear_280_2017" x1="1180.73" y1="72.7674" x2="1148.71" y2="89.5586" gradientUnits="userSpaceOnUse">
<stop stop-color="#2D4171"/>
<stop offset="1" stop-color="#1A2746" stop-opacity="0"/>
</linearGradient>
<linearGradient id="paint8_linear_280_2017" x1="1148.71" y1="89.5589" x2="1116.69" y2="106.35" gradientUnits="userSpaceOnUse">
<stop stop-color="#2D4171"/>
<stop offset="1" stop-color="#1A2746" stop-opacity="0"/>
</linearGradient>
<linearGradient id="paint9_linear_280_2017" x1="1078.67" y1="305.14" x2="1046.65" y2="321.932" gradientUnits="userSpaceOnUse">
<stop stop-color="#2D4171"/>
<stop offset="1" stop-color="#1A2746" stop-opacity="0"/>
</linearGradient>
<linearGradient id="paint10_linear_280_2017" x1="1110.69" y1="288.349" x2="1078.67" y2="305.141" gradientUnits="userSpaceOnUse">
<stop stop-color="#2D4171"/>
<stop offset="1" stop-color="#1A2746" stop-opacity="0"/>
</linearGradient>
<linearGradient id="paint11_linear_280_2017" x1="1174.73" y1="254.767" x2="1142.71" y2="271.558" gradientUnits="userSpaceOnUse">
<stop stop-color="#2D4171"/>
<stop offset="1" stop-color="#1A2746" stop-opacity="0"/>
</linearGradient>
<linearGradient id="paint12_linear_280_2017" x1="1142.71" y1="271.558" x2="1110.69" y2="288.35" gradientUnits="userSpaceOnUse">
<stop stop-color="#2D4171"/>
<stop offset="1" stop-color="#1A2746" stop-opacity="0"/>
</linearGradient>
<linearGradient id="paint13_linear_280_2017" x1="338.688" y1="345.931" x2="291.196" y2="370.837" gradientUnits="userSpaceOnUse">
<stop stop-color="#2D4171"/>
<stop offset="1" stop-color="#1A2746" stop-opacity="0"/>
</linearGradient>
<linearGradient id="paint14_linear_280_2017" x1="433.676" y1="296.119" x2="386.184" y2="321.025" gradientUnits="userSpaceOnUse">
<stop stop-color="#2D4171"/>
<stop offset="1" stop-color="#1A2746" stop-opacity="0"/>
</linearGradient>
<linearGradient id="paint15_linear_280_2017" x1="386.176" y1="321.026" x2="338.684" y2="345.931" gradientUnits="userSpaceOnUse">
<stop stop-color="#2D4171"/>
<stop offset="1" stop-color="#1A2746" stop-opacity="0"/>
</linearGradient>
<linearGradient id="paint16_linear_280_2017" x1="697.782" y1="326.549" x2="657.359" y2="342.03" gradientUnits="userSpaceOnUse">
<stop stop-color="#243358"/>
<stop offset="1" stop-color="#192643" stop-opacity="0"/>
</linearGradient>
<linearGradient id="paint17_linear_280_2017" x1="738.204" y1="311.069" x2="697.781" y2="326.549" gradientUnits="userSpaceOnUse">
<stop stop-color="#243358"/>
<stop offset="1" stop-color="#192643" stop-opacity="0"/>
</linearGradient>
<linearGradient id="paint18_linear_280_2017" x1="819.047" y1="280.107" x2="778.625" y2="295.588" gradientUnits="userSpaceOnUse">
<stop stop-color="#243358"/>
<stop offset="1" stop-color="#192643" stop-opacity="0"/>
</linearGradient>
<linearGradient id="paint19_linear_280_2017" x1="778.625" y1="295.588" x2="738.203" y2="311.068" gradientUnits="userSpaceOnUse">
<stop stop-color="#243358"/>
<stop offset="1" stop-color="#192643" stop-opacity="0"/>
</linearGradient>
<linearGradient id="paint20_linear_280_2017" x1="29.6264" y1="277.364" x2="-29.3132" y2="302.306" gradientUnits="userSpaceOnUse">
<stop stop-color="#1D2B4A"/>
<stop offset="1" stop-color="#18233F" stop-opacity="0"/>
</linearGradient>
<linearGradient id="paint21_linear_280_2017" x1="147.505" y1="227.479" x2="88.5657" y2="252.422" gradientUnits="userSpaceOnUse">
<stop stop-color="#1D2B4A"/>
<stop offset="1" stop-color="#18233F" stop-opacity="0"/>
</linearGradient>
<linearGradient id="paint22_linear_280_2017" x1="88.5678" y1="252.422" x2="29.6282" y2="277.364" gradientUnits="userSpaceOnUse">
<stop stop-color="#1D2B4A"/>
<stop offset="1" stop-color="#18233F" stop-opacity="0"/>
</linearGradient>
<linearGradient id="paint23_linear_280_2017" x1="22.201" y1="25.6633" x2="-3.29428" y2="36.4526" gradientUnits="userSpaceOnUse">
<stop stop-color="#22335A"/>
<stop offset="1" stop-color="#1A294D" stop-opacity="0"/>
</linearGradient>
<linearGradient id="paint24_linear_280_2017" x1="47.6932" y1="14.8743" x2="22.1979" y2="25.6635" gradientUnits="userSpaceOnUse">
<stop stop-color="#22335A"/>
<stop offset="1" stop-color="#1A294D" stop-opacity="0"/>
</linearGradient>
<linearGradient id="paint25_linear_280_2017" x1="98.6854" y1="-6.70436" x2="73.1901" y2="4.08488" gradientUnits="userSpaceOnUse">
<stop stop-color="#22335A"/>
<stop offset="1" stop-color="#1A294D" stop-opacity="0"/>
</linearGradient>
<linearGradient id="paint26_linear_280_2017" x1="73.1893" y1="4.08519" x2="47.694" y2="14.8744" gradientUnits="userSpaceOnUse">
<stop stop-color="#22335A"/>
<stop offset="1" stop-color="#1A294D" stop-opacity="0"/>
</linearGradient>
<clipPath id="clip0_280_2017">
<rect width="1146" height="328" fill="white"/>
</clipPath>
</defs>
</svg>
