<svg width="1366" height="1024" viewBox="0 0 1366 1024" fill="none" xmlns="http://www.w3.org/2000/svg">
<g opacity="0.4">
<path opacity="0.4" d="M1840 10.5189C992.975 65.1765 642.749 -555.804 101.277 -86.3521" stroke="#CBCCCE" stroke-opacity="0.5" stroke-width="1.58642" stroke-miterlimit="10"/>
<path opacity="0.4" d="M1837.28 21.0623C986.717 77.9182 639.211 -541.944 95.578 -74.9145" stroke="#CBCCCE" stroke-opacity="0.5" stroke-width="1.58642" stroke-miterlimit="10"/>
<path opacity="0.4" d="M1834.59 31.6066C980.452 90.698 635.629 -528.159 89.8727 -63.476" stroke="#CBCCCE" stroke-opacity="0.5" stroke-width="1.58642" stroke-miterlimit="10"/>
<path opacity="0.4" d="M1831.88 42.1885C974.157 103.441 632.165 -514.261 84.1732 -52.0371" stroke="#CBCCCE" stroke-opacity="0.5" stroke-width="1.58642" stroke-miterlimit="10"/>
<path opacity="0.4" d="M1829.27 52.7321C968.016 116.071 628.632 -500.401 78.591 -40.413" stroke="#CBCCCE" stroke-opacity="0.5" stroke-width="1.58642" stroke-miterlimit="10"/>
<path opacity="0.4" d="M1826.48 63.2771C961.642 129 624.941 -486.578 72.739 -29.1602" stroke="#CBCCCE" stroke-opacity="0.5" stroke-width="1.58642" stroke-miterlimit="10"/>
<path opacity="0.4" d="M1823.76 73.8211C955.384 141.743 621.365 -472.718 66.9651 -17.722" stroke="#CBCCCE" stroke-opacity="0.5" stroke-width="1.58642" stroke-miterlimit="10"/>
<path opacity="0.4" d="M1821.08 84.3645C949.239 154.521 617.642 -458.896 61.3421 -6.28438" stroke="#CBCCCE" stroke-opacity="0.5" stroke-width="1.58642" stroke-miterlimit="10"/>
<path opacity="0.4" d="M1818.35 94.9083C942.824 167.263 614.245 -445.036 55.7838 5.1536" stroke="#CBCCCE" stroke-opacity="0.5" stroke-width="1.58642" stroke-miterlimit="10"/>
<path opacity="0.4" d="M1815.63 105.49C936.566 180.044 610.669 -431.287 49.9353 16.5553" stroke="#CBCCCE" stroke-opacity="0.5" stroke-width="1.58642" stroke-miterlimit="10"/>
<path opacity="0.4" d="M1812.95 116.035C930.264 192.787 607.2 -417.352 44.23 27.9942" stroke="#CBCCCE" stroke-opacity="0.5" stroke-width="1.58642" stroke-miterlimit="10"/>
<path opacity="0.4" d="M1810.23 126.579C923.894 205.566 603.475 -403.492 38.5307 39.4322" stroke="#CBCCCE" stroke-opacity="0.5" stroke-width="1.58642" stroke-miterlimit="10"/>
<path opacity="0.4" d="M1807.51 137.121C917.748 218.344 599.973 -389.671 32.7938 50.8685" stroke="#CBCCCE" stroke-opacity="0.5" stroke-width="1.58642" stroke-miterlimit="10"/>
<path opacity="0.4" d="M1804.82 147.666C911.446 231.087 596.392 -375.81 27.0885 62.3081" stroke="#CBCCCE" stroke-opacity="0.5" stroke-width="1.58642" stroke-miterlimit="10"/>
<path opacity="0.4" d="M1802.11 158.209C905.27 243.865 592.861 -361.951 21.3968 73.745" stroke="#CBCCCE" stroke-opacity="0.5" stroke-width="1.58642" stroke-miterlimit="10"/>
<path opacity="0.4" d="M1799.47 168.791C898.941 256.608 589.289 -348.128 15.701 85.1835" stroke="#CBCCCE" stroke-opacity="0.5" stroke-width="1.58642" stroke-miterlimit="10"/>
<path opacity="0.4" d="M1796.7 179.335C892.636 269.387 585.704 -334.417 9.9921 96.6217" stroke="#CBCCCE" stroke-opacity="0.5" stroke-width="1.58642" stroke-miterlimit="10"/>
<path opacity="0.4" d="M1793.98 189.879C886.378 282.167 582.128 -320.557 4.29264 107.911" stroke="#CBCCCE" stroke-opacity="0.5" stroke-width="1.58642" stroke-miterlimit="10"/>
<path opacity="0.4" d="M1791.3 200.422C880.121 294.909 578.592 -306.585 -1.40483 119.498" stroke="#CBCCCE" stroke-opacity="0.5" stroke-width="1.58642" stroke-miterlimit="10"/>
<path opacity="0.4" d="M1788.58 210.967C873.818 307.838 575.008 -292.724 -7.26106 130.937" stroke="#CBCCCE" stroke-opacity="0.5" stroke-width="1.58642" stroke-miterlimit="10"/>
<path opacity="0.4" d="M1785.91 221.512C867.569 320.432 571.442 -278.901 -12.8394 142.487" stroke="#CBCCCE" stroke-opacity="0.5" stroke-width="1.58642" stroke-miterlimit="10"/>
<path opacity="0.4" d="M1783.19 232.091C861.311 333.21 567.904 -265.043 -18.7249 153.663" stroke="#CBCCCE" stroke-opacity="0.5" stroke-width="1.58642" stroke-miterlimit="10"/>
<path opacity="0.4" d="M1780.46 242.636C855.008 345.953 564.32 -251.182 -24.2456 165.251" stroke="#CBCCCE" stroke-opacity="0.5" stroke-width="1.58642" stroke-miterlimit="10"/>
<path opacity="0.4" d="M1777.78 253.181C848.751 358.585 560.746 -237.358 -29.9062 176.653" stroke="#CBCCCE" stroke-opacity="0.5" stroke-width="1.58642" stroke-miterlimit="10"/>
<path opacity="0.4" d="M1775.06 263.725C842.493 371.512 557.171 -223.499 -35.6798 188.091" stroke="#CBCCCE" stroke-opacity="0.5" stroke-width="1.58642" stroke-miterlimit="10"/>
<path opacity="0.4" d="M1772.38 274.27C836.229 384.255 553.626 -209.638 -41.3481 199.53" stroke="#CBCCCE" stroke-opacity="0.5" stroke-width="1.58642" stroke-miterlimit="10"/>
<path opacity="0.4" d="M1769.66 284.812C829.933 397.033 550.05 -195.817 -47.0477 210.967" stroke="#CBCCCE" stroke-opacity="0.5" stroke-width="1.58642" stroke-miterlimit="10"/>
<path opacity="0.4" d="M1766.94 295.245C823.675 409.777 546.475 -181.956 -52.784 222.406" stroke="#CBCCCE" stroke-opacity="0.5" stroke-width="1.58642" stroke-miterlimit="10"/>
<path opacity="0.4" d="M1764.25 305.937C817.41 422.555 542.93 -168.134 -58.4897 233.843" stroke="#CBCCCE" stroke-opacity="0.5" stroke-width="1.58642" stroke-miterlimit="10"/>
<path opacity="0.4" d="M1761.53 316.481C811.115 435.297 539.466 -154.275 -64.1146 245.281" stroke="#CBCCCE" stroke-opacity="0.5" stroke-width="1.58642" stroke-miterlimit="10"/>
<path opacity="0.4" d="M1758.85 327.025C804.672 448.002 535.781 -140.415 -69.8864 256.719" stroke="#CBCCCE" stroke-opacity="0.5" stroke-width="1.58642" stroke-miterlimit="10"/>
<path opacity="0.4" d="M1756.13 337.571C798.6 460.858 532.205 -126.59 -75.586 268.159" stroke="#CBCCCE" stroke-opacity="0.5" stroke-width="1.58642" stroke-miterlimit="10"/>
<path opacity="0.4" d="M1753.41 348.115C792.156 473.6 528.667 -112.73 -81.2853 279.597" stroke="#CBCCCE" stroke-opacity="0.5" stroke-width="1.58642" stroke-miterlimit="10"/>
<path opacity="0.4" d="M1750.73 358.583C786.04 486.378 525.234 -98.9087 -86.9908 291.034" stroke="#CBCCCE" stroke-opacity="0.5" stroke-width="1.58642" stroke-miterlimit="10"/>
<path opacity="0.4" d="M1748.01 369.24C779.782 499.122 521.509 -85.0475 -92.6901 302.474" stroke="#CBCCCE" stroke-opacity="0.5" stroke-width="1.58642" stroke-miterlimit="10"/>
<path opacity="0.4" d="M1745.33 379.782C773.488 511.899 517.786 -71.1895 -98.4251 313.873" stroke="#CBCCCE" stroke-opacity="0.5" stroke-width="1.58642" stroke-miterlimit="10"/>
<path opacity="0.4" d="M1742.6 390.329C767.222 524.644 514.389 -57.3643 -104.132 325.351" stroke="#CBCCCE" stroke-opacity="0.5" stroke-width="1.58642" stroke-miterlimit="10"/>
<path opacity="0.4" d="M1739.85 400.871C760.97 537.421 510.82 -43.5065 -109.825 336.787" stroke="#CBCCCE" stroke-opacity="0.5" stroke-width="1.58642" stroke-miterlimit="10"/>
<path opacity="0.4" d="M1737.21 411.415C754.678 550.202 507.247 -29.6456 -115.596 348.189" stroke="#CBCCCE" stroke-opacity="0.5" stroke-width="1.58642" stroke-miterlimit="10"/>
<path opacity="0.4" d="M1734.48 421.922C748.412 562.944 503.701 -15.8227 -121.229 359.627" stroke="#CBCCCE" stroke-opacity="0.5" stroke-width="1.58642" stroke-miterlimit="10"/>
<path opacity="0.4" d="M1731.77 432.541C742.154 575.723 500.125 -1.96318 -126.779 371.065" stroke="#CBCCCE" stroke-opacity="0.5" stroke-width="1.58642" stroke-miterlimit="10"/>
<path opacity="0.4" d="M1729.09 443.086C735.86 588.392 496.551 11.861 -132.626 382.504" stroke="#CBCCCE" stroke-opacity="0.5" stroke-width="1.58642" stroke-miterlimit="10"/>
<path opacity="0.4" d="M1726.36 453.628C729.594 601.245 493.117 25.7191 -138.37 394.015" stroke="#CBCCCE" stroke-opacity="0.5" stroke-width="1.58642" stroke-miterlimit="10"/>
<path opacity="0.4" d="M1723.68 464.172C723.338 613.987 489.431 39.4303 -144.068 405.379" stroke="#CBCCCE" stroke-opacity="0.5" stroke-width="1.58642" stroke-miterlimit="10"/>
<path opacity="0.4" d="M1720.95 474.717C717.034 626.842 485.848 53.4025 -149.775 416.818" stroke="#CBCCCE" stroke-opacity="0.5" stroke-width="1.58642" stroke-miterlimit="10"/>
<path opacity="0.4" d="M1718.23 485.262C710.776 639.51 482.309 67.2263 -155.474 428.22" stroke="#CBCCCE" stroke-opacity="0.5" stroke-width="1.58642" stroke-miterlimit="10"/>
<path opacity="0.4" d="M1715.55 495.843C704.52 652.327 478.587 81.086 -161.172 439.695" stroke="#CBCCCE" stroke-opacity="0.5" stroke-width="1.58642" stroke-miterlimit="10"/>
<path opacity="0.4" d="M1712.84 506.386C698.269 665.068 475.168 94.9447 -166.863 451.132" stroke="#CBCCCE" stroke-opacity="0.5" stroke-width="1.58642" stroke-miterlimit="10"/>
<path opacity="0.4" d="M1710.05 516.93C691.97 677.811 471.589 108.954 -172.566 462.571" stroke="#CBCCCE" stroke-opacity="0.5" stroke-width="1.58642" stroke-miterlimit="10"/>
<path opacity="0.4" d="M1707.44 527.475C685.709 690.591 468.048 122.629 -178.305 474.085" stroke="#CBCCCE" stroke-opacity="0.5" stroke-width="1.58642" stroke-miterlimit="10"/>
<path opacity="0.4" d="M1704.72 538.019C679.451 703.333 464.472 136.488 -184.005 485.448" stroke="#CBCCCE" stroke-opacity="0.5" stroke-width="1.58642" stroke-miterlimit="10"/>
<path opacity="0.4" d="M1702.03 548.599C673.149 716.261 460.89 150.348 -189.71 496.885" stroke="#CBCCCE" stroke-opacity="0.5" stroke-width="1.58642" stroke-miterlimit="10"/>
<path opacity="0.4" d="M1699.31 559.143C666.891 728.891 457.352 164.208 -195.41 508.286" stroke="#CBCCCE" stroke-opacity="0.5" stroke-width="1.58642" stroke-miterlimit="10"/>
<path opacity="0.4" d="M1696.63 569.688C660.635 741.634 453.778 178.031 -201.293 519.725" stroke="#CBCCCE" stroke-opacity="0.5" stroke-width="1.58642" stroke-miterlimit="10"/>
<path opacity="0.4" d="M1693.91 580.231C654.414 754.413 450.202 191.853 -206.807 531.163" stroke="#CBCCCE" stroke-opacity="0.5" stroke-width="1.58642" stroke-miterlimit="10"/>
<path opacity="0.4" d="M1691.2 590.777C648.193 767.157 446.626 205.827 -212.469 542.602" stroke="#CBCCCE" stroke-opacity="0.5" stroke-width="1.58642" stroke-miterlimit="10"/>
<path opacity="0.4" d="M1688.51 601.358C641.817 779.936 443.082 219.575 -218.211 554.04" stroke="#CBCCCE" stroke-opacity="0.5" stroke-width="1.58642" stroke-miterlimit="10"/>
<path opacity="0.4" d="M1685.79 611.939C635.521 792.678 439.544 233.397 -223.948 565.478" stroke="#CBCCCE" stroke-opacity="0.5" stroke-width="1.58642" stroke-miterlimit="10"/>
<path opacity="0.4" d="M1683.11 622.447C629.265 805.458 435.821 247.258 -229.646 576.917" stroke="#CBCCCE" stroke-opacity="0.5" stroke-width="1.58642" stroke-miterlimit="10"/>
<path opacity="0.4" d="M1680.23 632.988C622.85 818.235 432.089 261.078 -235.502 588.279" stroke="#CBCCCE" stroke-opacity="0.5" stroke-width="1.58642" stroke-miterlimit="10"/>
<path opacity="0.4" d="M1677.66 643.533C616.703 830.978 428.811 274.939 -241.127 599.792" stroke="#CBCCCE" stroke-opacity="0.5" stroke-width="1.58642" stroke-miterlimit="10"/>
<path opacity="0.4" d="M1674.98 654.077C610.439 843.758 425.229 288.948 -246.758 611.23" stroke="#CBCCCE" stroke-opacity="0.5" stroke-width="1.58642" stroke-miterlimit="10"/>
<path opacity="0.4" d="M1672.26 664.658C604.181 856.499 421.653 302.695 -252.457 622.668" stroke="#CBCCCE" stroke-opacity="0.5" stroke-width="1.58642" stroke-miterlimit="10"/>
<path opacity="0.4" d="M1669.59 675.277C597.895 869.354 418.124 316.556 -258.147 634.293" stroke="#CBCCCE" stroke-opacity="0.5" stroke-width="1.58642" stroke-miterlimit="10"/>
<path opacity="0.4" d="M1666.87 685.747C591.636 882.06 414.549 330.342 -263.883 645.471" stroke="#CBCCCE" stroke-opacity="0.5" stroke-width="1.58642" stroke-miterlimit="10"/>
<path opacity="0.4" d="M1664.14 696.29C585.37 894.801 410.965 344.164 -269.554 656.983" stroke="#CBCCCE" stroke-opacity="0.5" stroke-width="1.58642" stroke-miterlimit="10"/>
<path opacity="0.4" d="M1661.61 706.836C579.262 907.582 407.577 358.026 -275.14 668.423" stroke="#CBCCCE" stroke-opacity="0.5" stroke-width="1.58642" stroke-miterlimit="10"/>
<path opacity="0.4" d="M1658.73 717.379C572.811 920.324 403.845 371.848 -280.995 679.823" stroke="#CBCCCE" stroke-opacity="0.5" stroke-width="1.58642" stroke-miterlimit="10"/>
<path opacity="0.4" d="M1656.02 727.959C566.552 933.102 400.419 385.707 -286.695 691.26" stroke="#CBCCCE" stroke-opacity="0.5" stroke-width="1.58642" stroke-miterlimit="10"/>
<path opacity="0.4" d="M1653.34 738.615C560.304 945.956 396.703 399.566 -292.385 702.81" stroke="#CBCCCE" stroke-opacity="0.5" stroke-width="1.58642" stroke-miterlimit="10"/>
<path opacity="0.4" d="M1650.44 749.047C553.821 958.624 392.977 413.389 -298.16 714.137" stroke="#CBCCCE" stroke-opacity="0.5" stroke-width="1.58642" stroke-miterlimit="10"/>
<path opacity="0.4" d="M1647.94 759.593C547.744 971.405 389.583 427.251 -303.79 725.577" stroke="#CBCCCE" stroke-opacity="0.5" stroke-width="1.58642" stroke-miterlimit="10"/>
<path opacity="0.4" d="M1645.22 770.136C541.486 984.147 385.896 441.11 -309.526 737.014" stroke="#CBCCCE" stroke-opacity="0.5" stroke-width="1.58642" stroke-miterlimit="10"/>
<path opacity="0.4" d="M1642.49 780.68C535.182 996.777 382.461 454.933 -315.233 748.452" stroke="#CBCCCE" stroke-opacity="0.5" stroke-width="1.58642" stroke-miterlimit="10"/>
<path opacity="0.4" d="M1639.81 791.262C528.926 1009.67 378.887 468.794 -320.931 759.891" stroke="#CBCCCE" stroke-opacity="0.5" stroke-width="1.58642" stroke-miterlimit="10"/>
<path opacity="0.4" d="M1637.09 801.955C522.668 1022.6 375.312 482.765 -326.63 771.478" stroke="#CBCCCE" stroke-opacity="0.5" stroke-width="1.58642" stroke-miterlimit="10"/>
<path opacity="0.4" d="M1634.41 812.351C516.366 1035.19 371.768 496.44 -332.335 782.768" stroke="#CBCCCE" stroke-opacity="0.5" stroke-width="1.58642" stroke-miterlimit="10"/>
<path opacity="0.4" d="M1631.8 822.895C510.329 1047.97 368.301 510.337 -337.926 794.206" stroke="#CBCCCE" stroke-opacity="0.5" stroke-width="1.58642" stroke-miterlimit="10"/>
<path opacity="0.4" d="M1628.97 833.437C503.775 1060.71 364.616 524.195 -343.735 805.643" stroke="#CBCCCE" stroke-opacity="0.5" stroke-width="1.58642" stroke-miterlimit="10"/>
<path opacity="0.4" d="M1626.29 843.981C497.369 1073.49 361.042 538.018 -349.469 817.081" stroke="#CBCCCE" stroke-opacity="0.5" stroke-width="1.58642" stroke-miterlimit="10"/>
<path opacity="0.4" d="M1623.56 854.563C491.29 1086.27 357.496 551.842 -355.177 828.483" stroke="#CBCCCE" stroke-opacity="0.5" stroke-width="1.58642" stroke-miterlimit="10"/>
<path opacity="0.4" d="M1620.88 865.293C485.033 1099.2 353.922 565.888 -360.874 840.107" stroke="#CBCCCE" stroke-opacity="0.5" stroke-width="1.58642" stroke-miterlimit="10"/>
<path opacity="0.4" d="M1618.16 875.651C478.738 1111.79 350.346 579.561 -366.574 851.358" stroke="#CBCCCE" stroke-opacity="0.5" stroke-width="1.58642" stroke-miterlimit="10"/>
<path opacity="0.4" d="M1615.45 886.196C472.479 1124.65 346.808 593.384 -372.273 862.798" stroke="#CBCCCE" stroke-opacity="0.5" stroke-width="1.58642" stroke-miterlimit="10"/>
<path opacity="0.4" d="M1612.77 896.739C466.231 1137.31 343.242 607.244 -377.963 874.384" stroke="#CBCCCE" stroke-opacity="0.5" stroke-width="1.58642" stroke-miterlimit="10"/>
<path opacity="0.4" d="M1610.05 907.283C459.965 1150.09 339.547 621.104 -383.67 885.673" stroke="#CBCCCE" stroke-opacity="0.5" stroke-width="1.58642" stroke-miterlimit="10"/>
<path opacity="0.4" d="M1607.37 917.866C453.671 1162.84 336.084 634.928 -389.405 897.113" stroke="#CBCCCE" stroke-opacity="0.5" stroke-width="1.58642" stroke-miterlimit="10"/>
<path opacity="0.4" d="M1604.64 928.409C447.405 1175.62 332.538 648.787 -395.112 908.551" stroke="#CBCCCE" stroke-opacity="0.5" stroke-width="1.58642" stroke-miterlimit="10"/>
<path opacity="0.4" d="M1602 938.952C441.225 1188.36 329.041 662.609 -400.733 919.988" stroke="#CBCCCE" stroke-opacity="0.5" stroke-width="1.58642" stroke-miterlimit="10"/>
<path opacity="0.4" d="M1599.24 949.497C434.853 1201.14 325.389 676.469 -406.509 931.426" stroke="#CBCCCE" stroke-opacity="0.5" stroke-width="1.58642" stroke-miterlimit="10"/>
<path opacity="0.4" d="M1596.52 960.04C428.587 1213.88 321.842 690.329 -412.216 942.864" stroke="#CBCCCE" stroke-opacity="0.5" stroke-width="1.58642" stroke-miterlimit="10"/>
<path opacity="0.4" d="M1593.84 970.584C422.33 1226.66 318.268 704.152 -417.914 954.302" stroke="#CBCCCE" stroke-opacity="0.5" stroke-width="1.58642" stroke-miterlimit="10"/>
<path opacity="0.4" d="M1591.12 981.167C416.035 1239.44 314.693 718.013 -423.613 965.742" stroke="#CBCCCE" stroke-opacity="0.5" stroke-width="1.58642" stroke-miterlimit="10"/>
<path opacity="0.4" d="M1588.39 991.712C409.731 1252.18 311.109 731.837 -429.32 977.069" stroke="#CBCCCE" stroke-opacity="0.5" stroke-width="1.58642" stroke-miterlimit="10"/>
<path opacity="0.4" d="M1585.71 1002.25C403.512 1264.96 307.573 745.695 -435.055 988.618" stroke="#CBCCCE" stroke-opacity="0.5" stroke-width="1.58642" stroke-miterlimit="10"/>
<path opacity="0.4" d="M1582.99 1012.8C397.217 1277.7 303.997 759.443 -440.755 1000.02" stroke="#CBCCCE" stroke-opacity="0.5" stroke-width="1.58642" stroke-miterlimit="10"/>
<path opacity="0.4" d="M1580.27 1023.34C390.958 1290.48 300.421 773.379 -446.566 1011.46" stroke="#CBCCCE" stroke-opacity="0.5" stroke-width="1.58642" stroke-miterlimit="10"/>
<path opacity="0.4" d="M1577.59 1033.89C384.702 1303.23 296.884 787.238 -452.152 1022.9" stroke="#CBCCCE" stroke-opacity="0.5" stroke-width="1.58642" stroke-miterlimit="10"/>
<path opacity="0.4" d="M1574.88 1044.47C378.406 1316 293.197 801.098 -457.851 1034.33" stroke="#CBCCCE" stroke-opacity="0.5" stroke-width="1.58642" stroke-miterlimit="10"/>
<path opacity="0.4" d="M1572.19 1055.01C372.142 1328.78 289.727 814.921 -463.557 1045.77" stroke="#CBCCCE" stroke-opacity="0.5" stroke-width="1.58642" stroke-miterlimit="10"/>
<path opacity="0.4" d="M1569.47 1065.55C366.033 1341.53 286.152 828.78 -469.256 1057.21" stroke="#CBCCCE" stroke-opacity="0.5" stroke-width="1.58642" stroke-miterlimit="10"/>
<path opacity="0.4" d="M1566.75 1076.1C359.588 1354.31 282.613 842.603 -474.993 1068.65" stroke="#CBCCCE" stroke-opacity="0.5" stroke-width="1.58642" stroke-miterlimit="10"/>
</g>
</svg>
